<svg xmlns="http://www.w3.org/2000/svg" width="16" height="16" fill="none" viewBox="0 0 16 16"><g clip-path="url(#a)"><g clip-path="url(#b)"><path fill="#2D3440" fill-rule="evenodd" d="M1.6153 1.6153a.9619.9619 0 0 1 .6803-.282h8.9589a.6667.6667 0 1 0 0-1.3333H2.2956C1.6867 0 1.1028.242.6723.6727a2.2966 2.2966 0 0 0-.6722 1.6235v11.4071a2.2954 2.2954 0 0 0 2.2956 2.2962h11.4021c.6089 0 1.1929-.242 1.6233-.6726a2.2966 2.2966 0 0 0 .6723-1.6236V7.9998a.6667.6667 0 0 0-1.3333 0v5.7035a.9633.9633 0 0 1-.282.681.962.962 0 0 1-.6803.2819H2.2956a.962.962 0 0 1-.6803-.2819.9633.9633 0 0 1-.282-.681V2.2963a.9633.9633 0 0 1 .282-.681Zm14.2014.3251a.6667.6667 0 1 0-.968-.917l-7.2346 7.637L5.7825 6.727a.6667.6667 0 0 0-.968.917l2.3156 2.4443a.6667.6667 0 0 0 .968 0l7.7186-8.1479Z" clip-rule="evenodd"/></g></g><defs><clipPath id="a"><path fill="#fff" d="M0 0h16v16H0z"/></clipPath><clipPath id="b"><path fill="#fff" d="M0 0h16v16H0z"/></clipPath></defs></svg>